name rise30.8019peak61.5557fall86.2505.mot
datacolumns 19
datarows 14
range 17.34494100000000 17.36660700000000
endheader
time	ground_force1_vx	ground_force1_vy	ground_force1_vz	ground_force1_px	ground_force1_py	ground_force1_pz	ground_force2_vx	ground_force2_vy	ground_force2_vz	ground_force2_px	ground_force2_py	ground_force2_pz	ground_torque1_x	ground_torque1_y	ground_torque1_z	ground_torque2_x	ground_torque2_y	ground_torque2_z	
17.34494100000000	-5.76598300000000	44.11850100000000	-10.15620600000000	0.28429000000000	0.00000000000000	0.09324500000000	-56.58290900000000	760.41815199999996	-51.37497200000000	0.03160200000000	0.00000000000000	-0.07794400000000	0.00000000000000	-5.38568000000000	0.00000000000000	0.00000000000000	-12.23254000000000	0.00000000000000	
17.34660400000000	-6.23361500000000	50.30042600000000	-11.22765000000000	0.28683400000000	0.00000000000000	0.09364400000000	-57.03998900000000	757.98778500000003	-50.99486600000000	0.03091700000000	0.00000000000000	-0.07781500000000	0.00000000000000	-6.00700400000000	0.00000000000000	0.00000000000000	-12.19085300000000	0.00000000000000	
17.34826700000000	-6.59901400000000	56.38486400000000	-12.18484800000000	0.28926900000000	0.00000000000000	0.09402700000000	-57.51280300000000	755.45984399999998	-50.60244300000000	0.03023300000000	0.00000000000000	-0.07768300000000	0.00000000000000	-6.57828900000000	0.00000000000000	0.00000000000000	-12.15280400000000	0.00000000000000	
17.34993600000000	-6.85241800000000	62.30817100000000	-13.01185900000000	0.29160600000000	0.00000000000000	0.09439600000000	-58.00127000000000	752.83255599999995	-50.19766300000000	0.02955200000000	0.00000000000000	-0.07754700000000	0.00000000000000	-7.09022400000000	0.00000000000000	0.00000000000000	-12.11845500000000	0.00000000000000	
17.35160200000000	-6.98935900000000	68.03167200000000	-13.70057200000000	0.29385300000000	0.00000000000000	0.09475300000000	-58.50522700000000	750.10406499999999	-49.78047700000000	0.02887400000000	0.00000000000000	-0.07740900000000	0.00000000000000	-7.53749300000000	0.00000000000000	0.00000000000000	-12.08785500000000	0.00000000000000	
17.35327400000000	-7.01024300000000	73.54101600000000	-14.25018600000000	0.29601800000000	0.00000000000000	0.09510000000000	-59.02442800000000	747.27243899999996	-49.35083000000000	0.02819800000000	0.00000000000000	-0.07726700000000	0.00000000000000	-7.91859700000000	0.00000000000000	0.00000000000000	-12.06103700000000	0.00000000000000	
17.35493700000000	-6.91959600000000	78.84363399999999	-14.66617700000000	0.29810500000000	0.00000000000000	0.09543800000000	-59.55854000000000	744.33567100000005	-48.90865800000000	0.02752500000000	0.00000000000000	-0.07712100000000	0.00000000000000	-8.23539700000000	0.00000000000000	0.00000000000000	-12.03802100000000	0.00000000000000	
17.35660500000000	-6.72510800000000	83.96484800000000	-14.95893400000000	0.30011800000000	0.00000000000000	0.09576800000000	-60.10714000000000	741.29169200000001	-48.45389500000000	0.02685500000000	0.00000000000000	-0.07697300000000	0.00000000000000	-8.49245100000000	0.00000000000000	0.00000000000000	-12.01881000000000	0.00000000000000	
17.35827200000000	-6.43659400000000	88.94319299999999	-15.14222400000000	0.30206200000000	0.00000000000000	0.09609200000000	-60.66971800000000	738.13836900000001	-47.98647100000000	0.02618800000000	0.00000000000000	-0.07682100000000	0.00000000000000	-8.69624800000000	0.00000000000000	0.00000000000000	-12.00339500000000	0.00000000000000	
17.35994100000000	-6.06496000000000	93.82546600000001	-15.23165100000000	0.30393900000000	0.00000000000000	0.09641000000000	-61.24567000000000	734.87352199999998	-47.50631500000000	0.02552500000000	0.00000000000000	-0.07666700000000	0.00000000000000	-8.85441200000000	0.00000000000000	0.00000000000000	-11.99174900000000	0.00000000000000	
17.36160700000000	-5.62126100000000	98.66195399999999	-15.24322700000000	0.30575000000000	0.00000000000000	0.09672200000000	-61.83430100000000	731.49492399999997	-47.01335400000000	0.02486400000000	0.00000000000000	-0.07650900000000	0.00000000000000	-8.97494900000000	0.00000000000000	0.00000000000000	-11.98382900000000	0.00000000000000	
17.36327100000000	-5.11592100000000	103.50220299999999	-15.19216400000000	0.30749800000000	0.00000000000000	0.09703100000000	-62.43482200000000	728.00031500000000	-46.50751900000000	0.02420700000000	0.00000000000000	-0.07634800000000	0.00000000000000	-9.06558900000000	0.00000000000000	0.00000000000000	-11.97957900000000	0.00000000000000	
17.36493700000000	-4.55813100000000	108.39154600000001	-15.09192700000000	0.30918300000000	0.00000000000000	0.09733500000000	-63.04635100000000	724.38740700000005	-45.98874400000000	0.02355300000000	0.00000000000000	-0.07618400000000	0.00000000000000	-9.13326400000000	0.00000000000000	0.00000000000000	-11.97892400000000	0.00000000000000	
17.36660700000000	-3.95545200000000	113.36855400000000	-14.95358900000000	0.31080700000000	0.00000000000000	0.09763600000000	-63.66791100000000	720.65389600000003	-45.45697100000000	0.02290200000000	0.00000000000000	-0.07601700000000	0.00000000000000	-9.18372900000000	0.00000000000000	0.00000000000000	-11.98177500000000	0.00000000000000	
